<svg width="205" height="16" viewBox="0 0 205 16" fill="none" xmlns="http://www.w3.org/2000/svg">
<path id="FIND A RESTAURANT" d="M2.00781 0.78125V15H0.806641V0.78125H2.00781ZM8.62891 7.32422V8.35938H1.60742V7.32422H8.62891ZM9.61523 0.78125V1.81641H1.60742V0.78125H9.61523ZM14.5215 0.78125V15H13.3203V0.78125H14.5215ZM29.9746 0.78125V15H28.7637L20.5898 2.85156V15H19.3887V0.78125H20.5898L28.7832 12.9297V0.78125H29.9746ZM38.4941 15H35.2715L35.291 13.9746H38.4941C39.5163 13.9746 40.3952 13.7467 41.1309 13.291C41.873 12.8288 42.446 12.1908 42.8496 11.377C43.2533 10.5632 43.4551 9.61914 43.4551 8.54492V7.2168C43.4551 6.39648 43.3379 5.6543 43.1035 4.99023C42.8757 4.32617 42.5469 3.75977 42.1172 3.29102C41.6875 2.81576 41.1732 2.45117 40.5742 2.19727C39.9818 1.94336 39.3177 1.81641 38.582 1.81641H35.2129V0.78125H38.582C39.4674 0.78125 40.278 0.934245 41.0137 1.24023C41.7559 1.53971 42.3971 1.97591 42.9375 2.54883C43.4844 3.11523 43.9043 3.79557 44.1973 4.58984C44.4967 5.38411 44.6465 6.26953 44.6465 7.24609V8.54492C44.6465 9.52148 44.4967 10.4069 44.1973 11.2012C43.9043 11.9954 43.4844 12.6758 42.9375 13.2422C42.3906 13.8086 41.7428 14.2448 40.9941 14.5508C40.2454 14.8503 39.4121 15 38.4941 15ZM35.8086 0.78125V15H34.6074V0.78125H35.8086ZM59.2637 1.63086L54.3418 15H53.0918L58.4629 0.78125H59.332L59.2637 1.63086ZM63.7363 15L58.8047 1.63086L58.7363 0.78125H59.6055L64.9863 15H63.7363ZM62.8574 9.98047V11.0156H55.3086V9.98047H62.8574ZM73.9492 0.78125H78.5684C79.5514 0.78125 80.4043 0.940755 81.127 1.25977C81.8496 1.57878 82.4062 2.05078 82.7969 2.67578C83.194 3.29427 83.3926 4.05599 83.3926 4.96094C83.3926 5.63151 83.2493 6.24023 82.9629 6.78711C82.6829 7.33398 82.2956 7.79297 81.8008 8.16406C81.306 8.52865 80.7331 8.7793 80.082 8.91602L79.6621 9.07227H74.7305L74.7109 8.04688H78.8418C79.584 8.04688 80.2025 7.90365 80.6973 7.61719C81.1921 7.33073 81.5632 6.95312 81.8105 6.48438C82.0645 6.00911 82.1914 5.5013 82.1914 4.96094C82.1914 4.31641 82.0514 3.75977 81.7715 3.29102C81.498 2.81576 81.0911 2.45117 80.5508 2.19727C80.0104 1.94336 79.3496 1.81641 78.5684 1.81641H75.1504V15H73.9492V0.78125ZM82.7285 15L79.0469 8.64258L80.3359 8.63281L84.0078 14.873V15H82.7285ZM96.5312 13.9746V15H88.5332V13.9746H96.5312ZM88.8945 0.78125V15H87.6934V0.78125H88.8945ZM95.5352 7.1582V8.18359H88.5332V7.1582H95.5352ZM96.4824 0.78125V1.81641H88.5332V0.78125H96.4824ZM108.127 11.5039C108.127 11.1133 108.062 10.765 107.932 10.459C107.801 10.153 107.587 9.87956 107.287 9.63867C106.994 9.39128 106.597 9.16341 106.096 8.95508C105.601 8.74023 104.982 8.52865 104.24 8.32031C103.531 8.11849 102.889 7.89714 102.316 7.65625C101.743 7.41536 101.252 7.13867 100.842 6.82617C100.438 6.51367 100.129 6.14909 99.9141 5.73242C99.6992 5.30924 99.5918 4.81771 99.5918 4.25781C99.5918 3.71094 99.709 3.21289 99.9434 2.76367C100.178 2.31445 100.507 1.92708 100.93 1.60156C101.359 1.27604 101.864 1.02539 102.443 0.849609C103.029 0.673828 103.671 0.585938 104.367 0.585938C105.363 0.585938 106.223 0.77474 106.945 1.15234C107.674 1.52995 108.238 2.04102 108.635 2.68555C109.038 3.32357 109.24 4.03971 109.24 4.83398H108.039C108.039 4.21549 107.893 3.66536 107.6 3.18359C107.313 2.69531 106.896 2.31445 106.35 2.04102C105.809 1.76107 105.148 1.62109 104.367 1.62109C103.586 1.62109 102.928 1.74154 102.395 1.98242C101.867 2.2168 101.467 2.53255 101.193 2.92969C100.926 3.32031 100.793 3.75651 100.793 4.23828C100.793 4.57682 100.858 4.88932 100.988 5.17578C101.118 5.45573 101.33 5.7194 101.623 5.9668C101.923 6.20768 102.316 6.43555 102.805 6.65039C103.293 6.85872 103.895 7.05729 104.611 7.24609C105.367 7.45443 106.037 7.68555 106.623 7.93945C107.209 8.19336 107.704 8.48633 108.107 8.81836C108.511 9.14388 108.817 9.52474 109.025 9.96094C109.234 10.3971 109.338 10.9049 109.338 11.4844C109.338 12.0638 109.214 12.5846 108.967 13.0469C108.726 13.5026 108.384 13.89 107.941 14.209C107.505 14.528 106.988 14.7721 106.389 14.9414C105.796 15.1107 105.148 15.1953 104.445 15.1953C103.814 15.1953 103.186 15.1139 102.561 14.9512C101.936 14.7884 101.363 14.5378 100.842 14.1992C100.327 13.8542 99.9141 13.4115 99.6016 12.8711C99.2956 12.3307 99.1426 11.6862 99.1426 10.9375H100.334C100.334 11.5365 100.454 12.041 100.695 12.4512C100.936 12.8613 101.255 13.1934 101.652 13.4473C102.056 13.7012 102.499 13.8867 102.98 14.0039C103.469 14.1146 103.957 14.1699 104.445 14.1699C105.194 14.1699 105.842 14.0592 106.389 13.8379C106.942 13.6165 107.368 13.3073 107.668 12.9102C107.974 12.5065 108.127 12.0378 108.127 11.5039ZM117.701 0.78125V15H116.51V0.78125H117.701ZM122.574 0.78125V1.81641H111.646V0.78125H122.574ZM129.775 1.63086L124.854 15H123.604L128.975 0.78125H129.844L129.775 1.63086ZM134.248 15L129.316 1.63086L129.248 0.78125H130.117L135.498 15H134.248ZM133.369 9.98047V11.0156H125.82V9.98047H133.369ZM147.016 0.78125H148.217V10.4102C148.217 11.4779 147.992 12.3665 147.543 13.0762C147.094 13.7858 146.488 14.3164 145.727 14.668C144.971 15.0195 144.135 15.1953 143.217 15.1953C142.273 15.1953 141.423 15.0195 140.668 14.668C139.913 14.3164 139.314 13.7858 138.871 13.0762C138.435 12.3665 138.217 11.4779 138.217 10.4102V0.78125H139.408V10.4102C139.408 11.237 139.571 11.9303 139.896 12.4902C140.222 13.0501 140.671 13.4701 141.244 13.75C141.817 14.0299 142.475 14.1699 143.217 14.1699C143.952 14.1699 144.607 14.0299 145.18 13.75C145.753 13.4701 146.202 13.0501 146.527 12.4902C146.853 11.9303 147.016 11.237 147.016 10.4102V0.78125ZM152.566 0.78125H157.186C158.169 0.78125 159.021 0.940755 159.744 1.25977C160.467 1.57878 161.023 2.05078 161.414 2.67578C161.811 3.29427 162.01 4.05599 162.01 4.96094C162.01 5.63151 161.867 6.24023 161.58 6.78711C161.3 7.33398 160.913 7.79297 160.418 8.16406C159.923 8.52865 159.35 8.7793 158.699 8.91602L158.279 9.07227H153.348L153.328 8.04688H157.459C158.201 8.04688 158.82 7.90365 159.314 7.61719C159.809 7.33073 160.18 6.95312 160.428 6.48438C160.682 6.00911 160.809 5.5013 160.809 4.96094C160.809 4.31641 160.669 3.75977 160.389 3.29102C160.115 2.81576 159.708 2.45117 159.168 2.19727C158.628 1.94336 157.967 1.81641 157.186 1.81641H153.768V15H152.566V0.78125ZM161.346 15L157.664 8.64258L158.953 8.63281L162.625 14.873V15H161.346ZM170.979 1.63086L166.057 15H164.807L170.178 0.78125H171.047L170.979 1.63086ZM175.451 15L170.52 1.63086L170.451 0.78125H171.32L176.701 15H175.451ZM174.572 9.98047V11.0156H167.023V9.98047H174.572ZM190.396 0.78125V15H189.186L181.012 2.85156V15H179.811V0.78125H181.012L189.205 12.9297V0.78125H190.396ZM199.502 0.78125V15H198.311V0.78125H199.502ZM204.375 0.78125V1.81641H193.447V0.78125H204.375Z" fill="black"/>
</svg>
