<svg width="276" height="277" viewBox="0 0 276 277" fill="none" xmlns="http://www.w3.org/2000/svg">
<path d="M275.388 138.478C275.388 207.966 223.876 265.411 156.963 274.736C150.704 275.607 144.303 276.059 137.807 276.059C130.304 276.059 122.944 275.457 115.766 274.3C50.2636 263.755 0.225433 206.951 0.225433 138.47C0.225433 62.4937 61.8224 0.896699 137.807 0.896699C213.791 0.896699 275.388 62.4937 275.388 138.478Z" fill="#FFCC00"/>
<path d="M180.897 55.8864H94.7243C70.9174 55.8864 51.5549 75.2489 51.5549 99.0558V177.892C51.5549 201.699 70.9174 221.061 94.7243 221.061H180.897C204.704 221.061 224.066 201.699 224.066 177.892V99.0558C224.066 75.2489 204.704 55.8864 180.897 55.8864ZM66.7819 99.0558C66.7819 83.6466 79.3152 71.1133 94.7243 71.1133H180.897C196.306 71.1133 208.839 83.6466 208.839 99.0558V177.892C208.839 193.301 196.306 205.834 180.897 205.834H94.7243C79.3152 205.834 66.7819 193.301 66.7819 177.892V99.0558Z" fill="white"/>
<path d="M137.807 178.637C159.95 178.637 177.965 160.621 177.965 138.478C177.965 116.335 159.95 98.3189 137.807 98.3189C115.663 98.3189 97.6477 116.335 97.6477 138.478C97.6477 160.621 115.663 178.637 137.807 178.637ZM137.807 113.554C151.552 113.554 162.731 124.732 162.731 138.478C162.731 152.223 151.552 163.402 137.807 163.402C124.061 163.402 112.883 152.223 112.883 138.478C112.883 124.732 124.061 113.554 137.807 113.554Z" fill="white"/>
<path d="M181.689 104.8C187.655 104.8 192.511 99.9431 192.511 93.9775C192.511 88.0119 187.655 83.1555 181.689 83.1555C175.723 83.1555 170.867 88.0119 170.867 93.9775C170.867 99.9431 175.723 104.8 181.689 104.8Z" fill="white"/>
</svg>
