<svg width="24" height="24" viewBox="0 0 24 24" fill="none" xmlns="http://www.w3.org/2000/svg">
<g clip-path="url(#clip0_126_8)">
<path d="M28.9875 23.19C34.3557 23.19 38.7075 18.8382 38.7075 13.47C38.7075 8.1018 34.3557 3.75 28.9875 3.75C23.6193 3.75 19.2675 8.1018 19.2675 13.47C19.2675 18.8382 23.6193 23.19 28.9875 23.19Z" fill="#FFC100" fill-opacity="0.47"/>
<path d="M22.5 6V18H1.5V6H22.5ZM24 4.5H0V19.5H24V4.5Z" fill="#FFC100"/>
<path d="M12 9C13.2195 9 14.25 10.374 14.25 12C14.25 13.626 13.2195 15 12 15C10.7805 15 9.75 13.626 9.75 12C9.75 10.374 10.7805 9 12 9ZM12 7.5C9.92925 7.5 8.25 9.51525 8.25 12C8.25 14.4847 9.92925 16.5 12 16.5C14.0715 16.5 15.75 14.4847 15.75 12C15.75 9.51525 14.0715 7.5 12 7.5Z" fill="#FFC100"/>
</g>
<defs>
<clipPath id="clip0_126_8">
<rect width="24" height="24" fill="white"/>
</clipPath>
</defs>
</svg>
