<svg width="26" height="42" viewBox="0 0 26 42" fill="none" xmlns="http://www.w3.org/2000/svg">
<path d="M6.3 41.125C5.69001 41.125 5.10498 40.7767 4.67365 40.1566C4.24231 39.5366 4 38.6956 4 37.8188L5 19.85H7.7L8.7 37.8188C8.70029 38.2653 8.63766 38.7073 8.51587 39.1181C8.39408 39.5289 8.21566 39.9 7.99138 40.209C7.7671 40.5179 7.5016 40.7584 7.21091 40.9158C6.92021 41.0733 6.61035 41.1444 6.3 41.125Z" stroke="#AD6323" stroke-width="1.5" stroke-linecap="round" stroke-linejoin="round"/>
<path d="M6.3 19.85C9.22711 19.85 11.6 15.6023 11.6 10.3625C11.6 5.12271 9.22711 0.875 6.3 0.875C3.37289 0.875 1 5.12271 1 10.3625C1 15.6023 3.37289 19.85 6.3 19.85Z" stroke="#AD6323" stroke-width="1.5" stroke-linecap="round" stroke-linejoin="round"/>
<path d="M20.2 41.125C19.59 41.125 19.005 40.7767 18.5737 40.1567C18.1423 39.5366 17.9 38.6957 17.9 37.8188L18.9 19.85H21.6L22.6 37.8188C22.6003 38.2653 22.5377 38.7073 22.4159 39.1181C22.2941 39.5289 22.1157 39.9 21.8914 40.209C21.6671 40.518 21.4016 40.7584 21.1109 40.9158C20.8202 41.0733 20.5104 41.1444 20.2 41.125Z" stroke="#AD6323" stroke-width="1.5" stroke-linecap="round" stroke-linejoin="round"/>
<path d="M24.7 13.3813C24.6738 15.11 24.1777 16.7552 23.3178 17.9644C22.458 19.1735 21.3028 19.8504 20.1 19.85C18.9065 19.85 17.7619 19.1685 16.918 17.9554C16.0741 16.7422 15.6 15.0969 15.6 13.3813H24.7Z" stroke="#AD6323" stroke-width="1.5" stroke-linecap="round" stroke-linejoin="round"/>
<path d="M15.6 1.45V13.3813" stroke="#AD6323" stroke-width="1.5" stroke-linecap="round" stroke-linejoin="round"/>
<path d="M20.1 1.45V13.0938" stroke="#AD6323" stroke-width="1.5" stroke-linecap="round" stroke-linejoin="round"/>
<path d="M24.7 1.45V13.3813" stroke="#AD6323" stroke-width="1.5" stroke-linecap="round" stroke-linejoin="round"/>
</svg>
