<svg width="24" height="24" viewBox="0 0 24 24" fill="none" xmlns="http://www.w3.org/2000/svg">
<path d="M6 21V20L7.5 19C6.51667 19 5.6875 18.6625 5.0125 17.9875C4.3375 17.3125 4 16.4833 4 15.5V6C4 4.61667 4.64167 3.60417 5.925 2.9625C7.20833 2.32083 9.23333 2 12 2C14.8667 2 16.9167 2.30833 18.15 2.925C19.3833 3.54167 20 4.56667 20 6V15.5C20 16.4833 19.6625 17.3125 18.9875 17.9875C18.3125 18.6625 17.4833 19 16.5 19L18 20V21H6ZM6 10H11V7H6V10ZM13 10H18V7H13V10ZM8.5 16C8.91667 16 9.27083 15.8542 9.5625 15.5625C9.85417 15.2708 10 14.9167 10 14.5C10 14.0833 9.85417 13.7292 9.5625 13.4375C9.27083 13.1458 8.91667 13 8.5 13C8.08333 13 7.72917 13.1458 7.4375 13.4375C7.14583 13.7292 7 14.0833 7 14.5C7 14.9167 7.14583 15.2708 7.4375 15.5625C7.72917 15.8542 8.08333 16 8.5 16ZM15.5 16C15.9167 16 16.2708 15.8542 16.5625 15.5625C16.8542 15.2708 17 14.9167 17 14.5C17 14.0833 16.8542 13.7292 16.5625 13.4375C16.2708 13.1458 15.9167 13 15.5 13C15.0833 13 14.7292 13.1458 14.4375 13.4375C14.1458 13.7292 14 14.0833 14 14.5C14 14.9167 14.1458 15.2708 14.4375 15.5625C14.7292 15.8542 15.0833 16 15.5 16ZM7.5 17H16.5C16.9333 17 17.2917 16.8583 17.575 16.575C17.8583 16.2917 18 15.9333 18 15.5V12H6V15.5C6 15.9333 6.14167 16.2917 6.425 16.575C6.70833 16.8583 7.06667 17 7.5 17ZM12 4C10.5667 4 9.37917 4.08333 8.4375 4.25C7.49583 4.41667 6.83333 4.66667 6.45 5H17.65C17.35 4.66667 16.7292 4.41667 15.7875 4.25C14.8458 4.08333 13.5833 4 12 4Z" fill="#FFC000"/>
</svg>
